<mxfile host="app.diagrams.net" modified="2020-04-07T19:13:07.132Z" agent="5.0 (Windows NT 10.0; Win64; x64) AppleWebKit/537.36 (KHTML, like Gecko) Chrome/80.0.3987.163 Safari/537.36" etag="8lzxRMCy9w_zZeCjGQsK" version="12.9.8" type="github">
  <diagram id="C5RBs43oDa-KdzZeNtuy" name="Page-1">
    <mxGraphModel dx="1849" dy="420" grid="1" gridSize="10" guides="1" tooltips="1" connect="1" arrows="1" fold="1" page="1" pageScale="1" pageWidth="827" pageHeight="1169" math="0" shadow="0">
      <root>
        <mxCell id="WIyWlLk6GJQsqaUBKTNV-0" />
        <mxCell id="WIyWlLk6GJQsqaUBKTNV-1" parent="WIyWlLk6GJQsqaUBKTNV-0" />
        <mxCell id="hJoSlyMiaI26ZgM42gBi-0" value="&lt;pre style=&quot;background-color: rgb(255 , 234 , 246) ; font-family: &amp;#34;consolas&amp;#34; ; font-size: 8.3pt&quot;&gt;EDMEnumConstant.&lt;span style=&quot;color: #660e7a ; font-weight: bold ; font-style: italic&quot;&gt;NEW_STATUS&lt;/span&gt;.getKey().equals(tn.getActivityDetail().getStatus()) &lt;/pre&gt;&lt;pre style=&quot;background-color: rgb(255 , 234 , 246) ; font-family: &amp;#34;consolas&amp;#34; ; font-size: 8.3pt&quot;&gt;||&lt;/pre&gt;&lt;pre style=&quot;background-color: rgb(255 , 234 , 246) ; font-family: &amp;#34;consolas&amp;#34; ; font-size: 8.3pt&quot;&gt; EDMEnumConstant.&lt;span style=&quot;color: #660e7a ; font-weight: bold ; font-style: italic&quot;&gt;IN_PROGRESS_STATUS&lt;/span&gt;.getKey().equals(tn.getActivityDetail().getStatus())&lt;br&gt;      || &lt;/pre&gt;&lt;pre style=&quot;background-color: rgb(255 , 234 , 246) ; font-family: &amp;#34;consolas&amp;#34; ; font-size: 8.3pt&quot;&gt;EDMConstants.&lt;span style=&quot;color: #660e7a ; font-weight: bold ; font-style: italic&quot;&gt;CONTRACT_STATUS_PA&lt;/span&gt;.equals(tn.getActivityDetail().getStatus())&lt;/pre&gt;" style="rhombus;whiteSpace=wrap;html=1;" parent="WIyWlLk6GJQsqaUBKTNV-1" vertex="1">
          <mxGeometry x="-790" y="60" width="740" height="430" as="geometry" />
        </mxCell>
        <mxCell id="hJoSlyMiaI26ZgM42gBi-2" value="&lt;pre style=&quot;background-color: rgb(255 , 234 , 246) ; font-family: &amp;#34;consolas&amp;#34; ; font-size: 8.3pt&quot;&gt;doClaim(user, ad, action, tn);&lt;br&gt;redirectToE2EReviewContract(url);&lt;/pre&gt;" style="rounded=1;whiteSpace=wrap;html=1;" parent="WIyWlLk6GJQsqaUBKTNV-1" vertex="1">
          <mxGeometry x="-620" y="585" width="370" height="60" as="geometry" />
        </mxCell>
        <mxCell id="hJoSlyMiaI26ZgM42gBi-3" value="" style="endArrow=classic;html=1;exitX=0.5;exitY=1;exitDx=0;exitDy=0;entryX=0.55;entryY=0.033;entryDx=0;entryDy=0;entryPerimeter=0;" parent="WIyWlLk6GJQsqaUBKTNV-1" source="hJoSlyMiaI26ZgM42gBi-0" target="hJoSlyMiaI26ZgM42gBi-2" edge="1">
          <mxGeometry width="50" height="50" relative="1" as="geometry">
            <mxPoint x="-490" y="550" as="sourcePoint" />
            <mxPoint x="-440" y="500" as="targetPoint" />
          </mxGeometry>
        </mxCell>
        <mxCell id="hJoSlyMiaI26ZgM42gBi-4" value="Yes" style="text;html=1;strokeColor=none;fillColor=none;align=center;verticalAlign=middle;whiteSpace=wrap;rounded=0;" parent="WIyWlLk6GJQsqaUBKTNV-1" vertex="1">
          <mxGeometry x="-390" y="520" width="40" height="20" as="geometry" />
        </mxCell>
        <mxCell id="hJoSlyMiaI26ZgM42gBi-5" value="&lt;div&gt;&lt;pre style=&quot;background-color: #ffeaf6 ; color: #000000 ; font-family: &amp;#34;consolas&amp;#34; ; font-size: 8.3pt&quot;&gt;EDMConstants.&lt;span style=&quot;color: #660e7a ; font-weight: bold ; font-style: italic&quot;&gt;APPROVE_WITH_CHANGES_ACTION&lt;/span&gt;.equals(action)&lt;br&gt;      &amp;amp;&amp;amp;&lt;/pre&gt;&lt;pre style=&quot;background-color: #ffeaf6 ; color: #000000 ; font-family: &amp;#34;consolas&amp;#34; ; font-size: 8.3pt&quot;&gt; (tn.getActivityDetail().getStatus().equals(EDMEnumConstant.&lt;span style=&quot;color: #660e7a ; font-weight: bold ; font-style: italic&quot;&gt;IN_PROGRESS_STATUS&lt;/span&gt;.getKey())&lt;/pre&gt;&lt;pre style=&quot;background-color: #ffeaf6 ; color: #000000 ; font-family: &amp;#34;consolas&amp;#34; ; font-size: 8.3pt&quot;&gt; || &lt;/pre&gt;&lt;pre style=&quot;background-color: #ffeaf6 ; color: #000000 ; font-family: &amp;#34;consolas&amp;#34; ; font-size: 8.3pt&quot;&gt;tn.getActivityDetail().getStatus().equals(EDMConstants.&lt;span style=&quot;color: #660e7a ; font-weight: bold ; font-style: italic&quot;&gt;CONTRACT_STATUS_PA&lt;/span&gt;)&lt;/pre&gt;&lt;/div&gt;" style="rhombus;whiteSpace=wrap;html=1;" parent="WIyWlLk6GJQsqaUBKTNV-1" vertex="1">
          <mxGeometry x="-730" y="740" width="630" height="440" as="geometry" />
        </mxCell>
        <mxCell id="hJoSlyMiaI26ZgM42gBi-6" value="" style="endArrow=classic;html=1;exitX=0;exitY=0.5;exitDx=0;exitDy=0;entryX=0;entryY=0.5;entryDx=0;entryDy=0;" parent="WIyWlLk6GJQsqaUBKTNV-1" source="hJoSlyMiaI26ZgM42gBi-7" target="hJoSlyMiaI26ZgM42gBi-5" edge="1">
          <mxGeometry width="50" height="50" relative="1" as="geometry">
            <mxPoint x="-410" y="330" as="sourcePoint" />
            <mxPoint x="-730" y="510" as="targetPoint" />
          </mxGeometry>
        </mxCell>
        <mxCell id="hJoSlyMiaI26ZgM42gBi-7" value="No" style="text;html=1;strokeColor=none;fillColor=none;align=center;verticalAlign=middle;whiteSpace=wrap;rounded=0;" parent="WIyWlLk6GJQsqaUBKTNV-1" vertex="1">
          <mxGeometry x="-750" y="555" width="40" height="20" as="geometry" />
        </mxCell>
        <mxCell id="hJoSlyMiaI26ZgM42gBi-8" value="" style="endArrow=classic;html=1;exitX=0;exitY=0.5;exitDx=0;exitDy=0;entryX=0;entryY=0.5;entryDx=0;entryDy=0;" parent="WIyWlLk6GJQsqaUBKTNV-1" source="hJoSlyMiaI26ZgM42gBi-0" target="hJoSlyMiaI26ZgM42gBi-7" edge="1">
          <mxGeometry width="50" height="50" relative="1" as="geometry">
            <mxPoint x="-790" y="275" as="sourcePoint" />
            <mxPoint x="-680" y="925" as="targetPoint" />
          </mxGeometry>
        </mxCell>
        <mxCell id="hJoSlyMiaI26ZgM42gBi-9" value="" style="endArrow=classic;html=1;entryX=0.5;entryY=0;entryDx=0;entryDy=0;exitX=0.568;exitY=1.083;exitDx=0;exitDy=0;exitPerimeter=0;" parent="WIyWlLk6GJQsqaUBKTNV-1" source="hJoSlyMiaI26ZgM42gBi-2" target="hJoSlyMiaI26ZgM42gBi-5" edge="1">
          <mxGeometry width="50" height="50" relative="1" as="geometry">
            <mxPoint x="-410" y="660" as="sourcePoint" />
            <mxPoint x="-410" y="680" as="targetPoint" />
          </mxGeometry>
        </mxCell>
        <mxCell id="hJoSlyMiaI26ZgM42gBi-10" value="&lt;pre style=&quot;background-color: rgb(255 , 234 , 246) ; font-family: &amp;#34;consolas&amp;#34; ; font-size: 8.3pt&quot;&gt;alertPsQa =true&lt;/pre&gt;" style="rhombus;whiteSpace=wrap;html=1;" parent="WIyWlLk6GJQsqaUBKTNV-1" vertex="1">
          <mxGeometry x="-513" y="1270" width="200" height="180" as="geometry" />
        </mxCell>
        <mxCell id="hJoSlyMiaI26ZgM42gBi-11" value="" style="endArrow=classic;html=1;exitX=0.5;exitY=1;exitDx=0;exitDy=0;entryX=0.5;entryY=0;entryDx=0;entryDy=0;" parent="WIyWlLk6GJQsqaUBKTNV-1" source="hJoSlyMiaI26ZgM42gBi-5" target="hJoSlyMiaI26ZgM42gBi-10" edge="1">
          <mxGeometry width="50" height="50" relative="1" as="geometry">
            <mxPoint x="-440" y="1230" as="sourcePoint" />
            <mxPoint x="-390" y="1180" as="targetPoint" />
          </mxGeometry>
        </mxCell>
        <mxCell id="hJoSlyMiaI26ZgM42gBi-12" value="Yes" style="text;html=1;strokeColor=none;fillColor=none;align=center;verticalAlign=middle;whiteSpace=wrap;rounded=0;" parent="WIyWlLk6GJQsqaUBKTNV-1" vertex="1">
          <mxGeometry x="-390" y="1200" width="40" height="20" as="geometry" />
        </mxCell>
        <mxCell id="hJoSlyMiaI26ZgM42gBi-13" value="&lt;pre style=&quot;background-color: rgb(255 , 234 , 246) ; font-family: &amp;#34;consolas&amp;#34; ; font-size: 8.3pt&quot;&gt;getHttpServletRequest().getSession().setAttribute(&lt;span style=&quot;color: #660e7a ; font-weight: bold ; font-style: italic&quot;&gt;NWO_MINI_QA_MISSING&lt;/span&gt;, &lt;span style=&quot;color: #008000 ; font-weight: bold&quot;&gt;&quot;Y&quot;&lt;/span&gt;);&lt;br&gt;redirectToE2EReviewContract(url);&lt;/pre&gt;" style="rounded=1;whiteSpace=wrap;html=1;" parent="WIyWlLk6GJQsqaUBKTNV-1" vertex="1">
          <mxGeometry x="-640" y="1500" width="490" height="100" as="geometry" />
        </mxCell>
        <mxCell id="hJoSlyMiaI26ZgM42gBi-14" value="" style="endArrow=classic;html=1;entryX=0.473;entryY=0;entryDx=0;entryDy=0;entryPerimeter=0;" parent="WIyWlLk6GJQsqaUBKTNV-1" target="hJoSlyMiaI26ZgM42gBi-13" edge="1">
          <mxGeometry width="50" height="50" relative="1" as="geometry">
            <mxPoint x="-413" y="1450" as="sourcePoint" />
            <mxPoint x="-400" y="1450" as="targetPoint" />
          </mxGeometry>
        </mxCell>
        <mxCell id="hJoSlyMiaI26ZgM42gBi-15" value="yes" style="text;html=1;strokeColor=none;fillColor=none;align=center;verticalAlign=middle;whiteSpace=wrap;rounded=0;" parent="WIyWlLk6GJQsqaUBKTNV-1" vertex="1">
          <mxGeometry x="-390" y="1460" width="40" height="20" as="geometry" />
        </mxCell>
        <mxCell id="hJoSlyMiaI26ZgM42gBi-16" value="&lt;pre style=&quot;background-color: rgb(255 , 234 , 246) ; font-family: &amp;#34;consolas&amp;#34; ; font-size: 8.3pt&quot;&gt;masterServiceExclMiss ==true&lt;/pre&gt;" style="rhombus;whiteSpace=wrap;html=1;" parent="WIyWlLk6GJQsqaUBKTNV-1" vertex="1">
          <mxGeometry x="-530" y="1680" width="230" height="160" as="geometry" />
        </mxCell>
        <mxCell id="hJoSlyMiaI26ZgM42gBi-17" value="" style="endArrow=classic;html=1;entryX=0;entryY=0.5;entryDx=0;entryDy=0;" parent="WIyWlLk6GJQsqaUBKTNV-1" target="hJoSlyMiaI26ZgM42gBi-16" edge="1">
          <mxGeometry width="50" height="50" relative="1" as="geometry">
            <mxPoint x="-520" y="1360" as="sourcePoint" />
            <mxPoint x="-720" y="1600" as="targetPoint" />
            <Array as="points">
              <mxPoint x="-770" y="1590" />
            </Array>
          </mxGeometry>
        </mxCell>
        <mxCell id="hJoSlyMiaI26ZgM42gBi-18" value="No" style="text;html=1;strokeColor=none;fillColor=none;align=center;verticalAlign=middle;whiteSpace=wrap;rounded=0;" parent="WIyWlLk6GJQsqaUBKTNV-1" vertex="1">
          <mxGeometry x="-700" y="1610" width="40" height="20" as="geometry" />
        </mxCell>
        <mxCell id="hJoSlyMiaI26ZgM42gBi-20" value="&lt;pre style=&quot;background-color: rgb(255 , 234 , 246) ; font-family: &amp;#34;consolas&amp;#34; ; font-size: 8.3pt&quot;&gt;getHttpServletRequest().getSession().setAttribute(&lt;span style=&quot;color: #660e7a ; font-weight: bold ; font-style: italic&quot;&gt;NWO_REGION_MISSING&lt;/span&gt;, &lt;span style=&quot;color: #008000 ; font-weight: bold&quot;&gt;&quot;Y&quot;&lt;/span&gt;);&lt;br&gt;&lt;span style=&quot;color: #808080 ; font-style: italic&quot;&gt;//retrieveTasksFortheUser(getUserId(), filter, on);&lt;br&gt;&lt;/span&gt;redirectToE2EReviewContract(url)&lt;/pre&gt;" style="rounded=1;whiteSpace=wrap;html=1;" parent="WIyWlLk6GJQsqaUBKTNV-1" vertex="1">
          <mxGeometry x="-660" y="1950" width="450" height="100" as="geometry" />
        </mxCell>
        <mxCell id="hJoSlyMiaI26ZgM42gBi-22" value="" style="endArrow=classic;html=1;exitX=0.532;exitY=1.004;exitDx=0;exitDy=0;exitPerimeter=0;" parent="WIyWlLk6GJQsqaUBKTNV-1" source="hJoSlyMiaI26ZgM42gBi-16" edge="1">
          <mxGeometry width="50" height="50" relative="1" as="geometry">
            <mxPoint x="-400" y="1920" as="sourcePoint" />
            <mxPoint x="-420" y="1940" as="targetPoint" />
          </mxGeometry>
        </mxCell>
        <mxCell id="hJoSlyMiaI26ZgM42gBi-23" value="yes" style="text;html=1;strokeColor=none;fillColor=none;align=center;verticalAlign=middle;whiteSpace=wrap;rounded=0;" parent="WIyWlLk6GJQsqaUBKTNV-1" vertex="1">
          <mxGeometry x="-380" y="1870" width="40" height="20" as="geometry" />
        </mxCell>
        <mxCell id="hJoSlyMiaI26ZgM42gBi-24" value="&lt;pre style=&quot;background-color: rgb(255 , 234 , 246) ; font-family: &amp;#34;consolas&amp;#34; ; font-size: 8.3pt&quot;&gt;wwsaUrlMiss =true&lt;/pre&gt;" style="rhombus;whiteSpace=wrap;html=1;" parent="WIyWlLk6GJQsqaUBKTNV-1" vertex="1">
          <mxGeometry x="-610" y="2100" width="310" height="160" as="geometry" />
        </mxCell>
        <mxCell id="hJoSlyMiaI26ZgM42gBi-25" value="" style="endArrow=classic;html=1;exitX=1;exitY=0.5;exitDx=0;exitDy=0;entryX=1;entryY=0.5;entryDx=0;entryDy=0;" parent="WIyWlLk6GJQsqaUBKTNV-1" source="hJoSlyMiaI26ZgM42gBi-16" target="hJoSlyMiaI26ZgM42gBi-24" edge="1">
          <mxGeometry width="50" height="50" relative="1" as="geometry">
            <mxPoint x="-80" y="2020" as="sourcePoint" />
            <mxPoint x="-260" y="2130" as="targetPoint" />
            <Array as="points">
              <mxPoint x="-30" y="1920" />
              <mxPoint x="-100" y="2130" />
            </Array>
          </mxGeometry>
        </mxCell>
        <mxCell id="hJoSlyMiaI26ZgM42gBi-26" value="No" style="text;html=1;strokeColor=none;fillColor=none;align=center;verticalAlign=middle;whiteSpace=wrap;rounded=0;" parent="WIyWlLk6GJQsqaUBKTNV-1" vertex="1">
          <mxGeometry x="-130" y="1920" width="40" height="20" as="geometry" />
        </mxCell>
        <mxCell id="hJoSlyMiaI26ZgM42gBi-27" value="" style="endArrow=classic;html=1;exitX=0.5;exitY=1;exitDx=0;exitDy=0;" parent="WIyWlLk6GJQsqaUBKTNV-1" source="hJoSlyMiaI26ZgM42gBi-24" edge="1">
          <mxGeometry width="50" height="50" relative="1" as="geometry">
            <mxPoint x="-470" y="2310" as="sourcePoint" />
            <mxPoint x="-455" y="2370" as="targetPoint" />
          </mxGeometry>
        </mxCell>
        <mxCell id="hJoSlyMiaI26ZgM42gBi-28" value="&lt;pre style=&quot;background-color: rgb(255 , 234 , 246) ; font-family: &amp;#34;consolas&amp;#34; ; font-size: 8.3pt&quot;&gt;getHttpServletRequest().getSession().setAttribute(&lt;span style=&quot;color: #660e7a ; font-weight: bold ; font-style: italic&quot;&gt;NWO_WWSAURL_MISSING&lt;/span&gt;, &lt;span style=&quot;color: #008000 ; font-weight: bold&quot;&gt;&quot;Y&quot;&lt;/span&gt;);&lt;br&gt;&lt;span style=&quot;color: #808080 ; font-style: italic&quot;&gt;//retrieveTasksFortheUser(getUserId(), filter, on);&lt;br&gt;&lt;/span&gt;redirectToE2EReviewContract(url);&lt;/pre&gt;" style="rounded=1;whiteSpace=wrap;html=1;" parent="WIyWlLk6GJQsqaUBKTNV-1" vertex="1">
          <mxGeometry x="-672.5" y="2370" width="515" height="110" as="geometry" />
        </mxCell>
        <mxCell id="uuovN06LYBaAnTUlVfJP-0" value="&lt;pre style=&quot;background-color: rgb(255 , 234 , 246) ; font-family: &amp;#34;consolas&amp;#34; ; font-size: 8.3pt&quot;&gt;isLatamExcludedCountriesMissing == true&lt;/pre&gt;" style="rhombus;whiteSpace=wrap;html=1;" vertex="1" parent="WIyWlLk6GJQsqaUBKTNV-1">
          <mxGeometry x="-600" y="2590" width="370" height="170" as="geometry" />
        </mxCell>
        <mxCell id="uuovN06LYBaAnTUlVfJP-1" value="" style="endArrow=classic;html=1;exitX=0;exitY=0.5;exitDx=0;exitDy=0;entryX=0;entryY=0.5;entryDx=0;entryDy=0;" edge="1" parent="WIyWlLk6GJQsqaUBKTNV-1" source="hJoSlyMiaI26ZgM42gBi-24" target="uuovN06LYBaAnTUlVfJP-0">
          <mxGeometry width="50" height="50" relative="1" as="geometry">
            <mxPoint x="-650" y="2220" as="sourcePoint" />
            <mxPoint x="-750" y="2450" as="targetPoint" />
            <Array as="points">
              <mxPoint x="-790" y="2480" />
            </Array>
          </mxGeometry>
        </mxCell>
        <mxCell id="uuovN06LYBaAnTUlVfJP-2" value="&lt;pre style=&quot;background-color: rgb(255 , 234 , 246) ; font-family: &amp;#34;consolas&amp;#34; ; font-size: 8.3pt&quot;&gt;redirectToE2EReviewContract(url);&lt;/pre&gt;" style="rounded=1;whiteSpace=wrap;html=1;" vertex="1" parent="WIyWlLk6GJQsqaUBKTNV-1">
          <mxGeometry x="-550" y="2850" width="230" height="57" as="geometry" />
        </mxCell>
        <mxCell id="uuovN06LYBaAnTUlVfJP-3" value="" style="endArrow=classic;html=1;exitX=0.5;exitY=1;exitDx=0;exitDy=0;entryX=0.5;entryY=0;entryDx=0;entryDy=0;" edge="1" parent="WIyWlLk6GJQsqaUBKTNV-1" source="uuovN06LYBaAnTUlVfJP-0" target="uuovN06LYBaAnTUlVfJP-2">
          <mxGeometry width="50" height="50" relative="1" as="geometry">
            <mxPoint x="-540" y="2830" as="sourcePoint" />
            <mxPoint x="-490" y="2780" as="targetPoint" />
          </mxGeometry>
        </mxCell>
        <mxCell id="uuovN06LYBaAnTUlVfJP-4" value="yes" style="text;html=1;strokeColor=none;fillColor=none;align=center;verticalAlign=middle;whiteSpace=wrap;rounded=0;" vertex="1" parent="WIyWlLk6GJQsqaUBKTNV-1">
          <mxGeometry x="-400" y="2800" width="40" height="20" as="geometry" />
        </mxCell>
        <mxCell id="uuovN06LYBaAnTUlVfJP-5" value="&lt;pre style=&quot;background-color: rgb(255 , 234 , 246) ; font-family: &amp;#34;consolas&amp;#34; ; font-size: 8.3pt&quot;&gt;redirect(action, user, tn, taskApproveurl);&lt;/pre&gt;" style="rhombus;whiteSpace=wrap;html=1;" vertex="1" parent="WIyWlLk6GJQsqaUBKTNV-1">
          <mxGeometry x="-620" y="2960" width="280" height="260" as="geometry" />
        </mxCell>
        <mxCell id="uuovN06LYBaAnTUlVfJP-6" value="" style="endArrow=classic;html=1;exitX=1.008;exitY=0.543;exitDx=0;exitDy=0;exitPerimeter=0;entryX=1;entryY=0.5;entryDx=0;entryDy=0;" edge="1" parent="WIyWlLk6GJQsqaUBKTNV-1" source="uuovN06LYBaAnTUlVfJP-0" target="uuovN06LYBaAnTUlVfJP-5">
          <mxGeometry width="50" height="50" relative="1" as="geometry">
            <mxPoint x="-260" y="2840" as="sourcePoint" />
            <mxPoint x="-210" y="2790" as="targetPoint" />
            <Array as="points">
              <mxPoint x="-90" y="2850" />
            </Array>
          </mxGeometry>
        </mxCell>
        <mxCell id="uuovN06LYBaAnTUlVfJP-7" value="No" style="text;html=1;strokeColor=none;fillColor=none;align=center;verticalAlign=middle;whiteSpace=wrap;rounded=0;" vertex="1" parent="WIyWlLk6GJQsqaUBKTNV-1">
          <mxGeometry x="-170" y="2850" width="40" height="20" as="geometry" />
        </mxCell>
      </root>
    </mxGraphModel>
  </diagram>
</mxfile>
